<?xml version="1.0" encoding="utf-8" ?>
<svg xmlns="http://www.w3.org/2000/svg" xmlns:xlink="http://www.w3.org/1999/xlink" width="1024" height="1024">
	<path fill="#010120" transform="scale(2 2)" d="M84.1385 84.5206L413.425 84.5134C428.625 84.5046 447.016 84.8576 449.97 105.057C450.491 108.615 450.248 112.438 450.246 116.037L450.251 378.34C450.256 397.275 453.695 418.434 427.951 422.135C418.992 421.77 409.859 422.129 400.886 422.131L93.7093 422.157C78.4164 422.323 64.3017 419.04 61.9894 400.264C61.4217 395.653 61.7425 390.778 61.7431 386.126L61.7398 125.051C61.734 106.499 59.8372 87.3143 84.1385 84.5206ZM97.8775 156.638L74.6353 156.638L74.6349 388.958C74.6415 397.831 74.0205 409.69 87.1222 409.656L415.812 409.533C435.146 409.431 437.641 408.274 437.652 388.647L437.648 156.638C425.108 156.807 412.542 156.638 400 156.638L97.8775 156.638ZM84.1385 97.2492C72.6249 100.165 74.6163 110.909 74.6183 120.084L74.6353 144.096C87.5576 144.486 100.616 144.096 113.553 144.096L427.951 144.096L437.648 144.096L437.665 119.753C437.684 99.6103 437.944 97.2479 414.996 97.244L84.1385 97.2492Z"/>
	<path fill="#010120" transform="scale(2 2)" d="M170.867 108.626C185.484 108.257 191.068 124.006 176.141 132.349C158.683 132.435 156.843 113.444 170.867 108.626Z"/>
	<path fill="#010120" transform="scale(2 2)" d="M135.861 108.626C150.402 107.586 154.743 128.093 138.534 132.349C122.762 133.233 120.765 111.262 135.861 108.626Z"/>
	<path fill="#010120" transform="scale(2 2)" d="M99.4466 108.626C114.885 107.931 117.436 128.173 103.005 132.349C85.5306 133.486 84.7825 110.503 99.4466 108.626Z"/>
	<path fill="#010120" transform="scale(2 2)" d="M309.87 310.251L335.185 310.248C339.235 310.246 343.625 309.857 347.618 310.304C351.333 310.72 353.259 315.987 350.607 318.67C347.836 321.474 339.834 320.126 336.309 320.122L314.925 320.129L314.925 337.814C319.304 337.812 341.641 337.106 344.574 338.498C347.723 339.993 347.361 346.18 344.017 347.124C338.722 348.618 317.048 346.241 314.925 347.397L314.925 366.499L335.706 366.462C339.555 366.441 343.744 366.084 347.542 366.616C353.395 367.436 352.392 373.158 348.995 376.23L322.081 376.239C316.789 376.244 309.179 378.131 305.59 373.384C305.353 370.801 305.574 368.105 305.58 365.506L305.581 328.196C305.582 322.265 303.298 311.773 309.87 310.251Z"/>
	<path fill="#010120" transform="scale(2 2)" d="M266.17 265.751C268.376 265.969 270.722 265.754 272.944 265.752L387.988 265.763C393.369 265.741 405.728 263.418 407.481 270.622C408.28 273.907 405.958 277.602 402.684 278.385L279.666 278.354C274.929 278.342 262.463 280.529 260.5 274.526C258.995 269.928 261.829 266.93 266.17 265.751Z"/>
	<path fill="#010120" transform="scale(2 2)" d="M266.17 186.078C270.04 185.635 275.953 186.075 280.076 186.083L371.671 186.081C377.254 186.082 399.729 184.998 403.662 186.63C409.516 189.058 407.973 196.981 402.684 198.955C399.964 199.585 397.243 198.988 394.498 198.985L276.289 198.939C273.214 198.937 270.091 199.102 267.024 198.999C258.36 198.708 256.976 187.349 266.17 186.078Z"/>
	<path fill="#4B65DB" transform="scale(2 2)" d="M344.536 225.631L382.11 225.631C391.596 225.627 405.007 222.025 407.813 232.789C405.813 241.694 397.951 240.295 390.796 240.298L324.062 240.293L285.672 240.303C278.227 240.311 260.464 243.64 260.188 232.84C259.968 224.246 269.975 225.612 275.616 225.617L344.536 225.631Z"/>
	<path fill="#010120" transform="scale(2 2)" d="M191.42 310.251C198.566 310.137 209.663 309.596 216.575 310.443C238.392 313.115 244.885 340.329 219.813 351.445C222.426 356.549 234.344 367.415 234.334 372.397C234.324 377.438 228.246 377.828 224.551 373.384C218.838 366.14 213.182 358.796 207.608 351.445L196.894 351.445L196.931 365.002C196.967 369.117 198.34 377.752 191.346 376.441C189.506 376.096 188.273 374.856 187.235 373.384C187.048 370.559 187.225 367.686 187.228 364.854L187.223 326.773C187.223 321.11 185.127 311.86 191.42 310.251ZM197.564 320.129C195.917 321.513 196.883 338.261 196.894 341.249C201.778 342.052 218.511 341.931 222.256 339.154C224.5 336.914 226.344 334.472 226.284 331.132C226.03 316.976 206.617 320.138 197.564 320.129Z"/>
	<path fill="#010120" transform="scale(2 2)" d="M363.304 310.251C370.777 310.237 389.191 309.365 395.442 311.523C414.498 318.103 414.468 341.484 394.243 350.794C396.909 354.543 399.155 358.667 401.56 362.59C407.59 372.426 414.304 378.2 399.103 377.408L397.457 374.639C394.615 369.767 385.345 353.807 382.248 350.794L370.749 350.794C370.588 358.071 371.326 365.636 370.706 372.869C370.335 377.19 363.763 377.974 361.49 374.746C359.985 372.609 360.865 359.712 360.876 356.746L360.891 319.964C360.895 316.416 359.851 312.402 363.304 310.251ZM370.749 320.129L370.749 341.249C378.458 341.237 390.964 343.641 396.497 337.814C402.279 332.014 399.078 322.57 391.194 320.59C387.077 319.556 375.575 320.117 370.749 320.129Z"/>
	<path fill="#010120" transform="scale(2 2)" d="M248.223 310.251C262.411 309.664 288.793 306.465 293.657 324.144C295.168 329.633 294.491 336.824 294.491 342.547C294.49 353.735 296.535 364.207 287.305 372.483C280.153 377.669 271.807 376.177 263.526 376.205C256.267 376.23 245.16 379.433 244.561 370.74C243.369 353.461 244.2 330.463 244.5 312.982C245.574 311.408 246.374 310.758 248.223 310.251ZM255.864 320.129C251.983 320.406 253.873 332.661 253.875 336.844L253.878 366.499C260.377 366.427 275.785 367.773 280.898 364.939C286.567 360.209 284.766 352.311 284.767 345.691C284.768 336.096 288.151 321.283 275.163 320.212C268.874 319.694 262.18 319.957 255.864 320.129Z"/>
	<defs>
		<linearGradient id="gradient_0" gradientUnits="userSpaceOnUse" x1="135.55428" y1="377.09283" x2="141.79831" y2="309.25867">
			<stop offset="0" stop-color="black"/>
			<stop offset="1" stop-color="#020121"/>
		</linearGradient>
	</defs>
	<path fill="url(#gradient_0)" transform="scale(2 2)" d="M118.942 310.251C126.144 309.883 133.528 310.254 140.75 310.242C174.88 310.185 175.175 314.99 175.256 345.291C175.296 360.238 176.423 371.716 159.068 376.23C156.027 376.55 152.715 376.368 149.651 376.329L135.609 376.217C123.263 376.199 106.852 379.149 103.355 362.098C102.672 358.773 102.682 329.38 103.277 325.574C104.597 317.14 110.705 311.926 118.942 310.251ZM120.71 320.129C109.454 321.345 112.739 334.531 112.743 343.125C112.746 348.29 112.232 355.691 112.95 360.556C114.193 368.978 129.596 366.494 136.671 366.495L150.883 366.514C153.209 366.53 155.841 366.886 158.125 366.499C161.584 365.901 164.954 363.243 165.438 359.604C165.815 356.765 165.794 328.872 165.192 326.488C162.976 317.709 153.349 320.118 146.729 320.132L127.827 320.11C125.701 320.103 122.738 319.678 120.71 320.129Z"/>
	<path fill="#4B65DB" transform="scale(2 2)" d="M138.534 329.597C154.875 327.268 160.389 353.742 141.058 357.174C122.248 358.619 119.35 331.854 138.534 329.597Z"/>
	<path fill="#010120" transform="scale(2 2)" d="M108.638 179.598L194.238 179.596C199.837 179.595 226.597 179.038 229.43 179.99C235.219 181.936 233.128 196.238 233.13 201.51L233.124 262.359C233.136 269.65 235.823 279.192 228.361 282.248C225.091 282.723 220.89 282.272 217.493 282.26L193.589 282.24C166.638 282.239 139.64 282.592 112.694 282.261C101.263 282.12 104.235 271.03 104.24 262.266L104.288 207.562C104.269 200.587 101.518 182.275 108.638 179.598ZM118.942 231.303C114.578 231.634 116.49 241.953 116.493 246.014L116.501 269.755L167.812 269.755C168.463 269.742 168.494 269.872 168.994 269.402C171.136 256.443 168.299 243.513 169.569 231.303C152.706 231.08 135.809 231.304 118.942 231.303ZM170.867 192.345C168.093 192.908 169.693 222.593 169.569 230.599L219.813 230.599L220.362 230.556C221.216 229.231 220.6 197.007 220.698 192.345L187.792 192.334C182.172 192.333 176.477 192.134 170.867 192.345Z"/>
	<path fill="#4B65DB" transform="scale(2 2)" d="M181.253 242.937L220.698 242.937L220.698 269.755L181.253 269.755L181.253 242.937Z"/>
	<path fill="#010120" transform="scale(2 2)" d="M192.321 250.023L209.228 250.023L209.228 261.04L192.321 261.04L192.321 250.023Z"/>
	<path fill="#4B65DB" transform="scale(2 2)" d="M116.501 192.345L157.173 192.345L157.173 219.232L116.501 219.232L116.501 192.345Z"/>
	<path fill="#010120" transform="scale(2 2)" d="M128.039 199.82L145.85 199.82L145.85 211.44L128.039 211.44L128.039 199.82Z"/>
</svg>
