<svg version="1.2" xmlns="http://www.w3.org/2000/svg" viewBox="0 0 48 48" width="48" height="48"><style>.a{fill:#15376b}.b{fill:#91dbf9}.c{fill:#fec660}.d{fill:#fefefe}.e{fill:#f39046}.f{fill:#f98d75}</style><path class="a" d="m4.3 4c0.8-0.1 1.6 0 2.4 0h34.7c1.6 0 3.9-0.3 4.3 1.8 0.1 0.5 0.1 1 0.1 1.5v31.6c0 1.9 0.5 4.3-2 4.8-0.7 0.1-1.4 0-2.1 0h-35.1c-1.6 0-4 0.3-4.3-2-0.1-0.5 0-1 0-1.5v-31.8c0-1.7-0.4-4.2 2-4.4z"/><path class="b" d="m4.5 4.6h37.4c3 0 3.2 0.2 3.2 3.1v3.1h-1.5-40.7c0.1-1.1 0-2.2 0-3.3 0-1.2 0-2.8 1.6-2.9z"/><path class="a" d="m12.9 6.2c2 0.2 2.1 2.4 0.5 2.9-1.8 0.2-2.4-2.2-0.5-2.9z"/><path class="c" d="m13.2 6.9c0.9 0.1 0.8 1.3 0 1.5-1.1 0-1.1-1.2 0-1.5z"/><path class="a" d="m9.3 6.2c1.8-0.1 2.2 2.5 0.3 2.9-1.9 0.1-2.2-2.5-0.3-2.9z"/><path class="c" d="m9.3 6.9c1.1-0.1 1.2 1.1 0.3 1.5-1 0.1-1.2-1.1-0.3-1.5z"/><path class="a" d="m5.6 6.2c1.8-0.1 2.2 2.4 0.4 2.9-1.9 0.2-2.3-2.6-0.4-2.9z"/><path class="c" d="m5.7 6.9c1 0 1.1 1.2 0.2 1.5-0.5 0-0.8-0.2-0.9-0.7 0.1-0.4 0.2-0.7 0.7-0.8z"/><path class="a" d="m19.3 7.5h20.2c0.4 0 2.8-0.1 3 0.2 0.1 0.2 0 0.4-0.2 0.5-0.4 0-0.8 0-1.2 0h-20.3c-0.3 0-1.5 0.1-1.7-0.1-0.1-0.2 0-0.5 0.2-0.6z"/><path class="d" d="m2.9 11.4h42.2v29.2c0 0.8 0.1 1.3-0.5 2-0.4 0.3-0.8 0.5-1.3 0.5-2.8 0-5.6 0-8.4 0h-28.9c-2.4 0-3.1-0.1-3.1-2.5z"/><path class="a" d="m36.7 39.1c0.5 0 2.1-0.1 2.5 0.1 0.3 0.2 0.1 0.5-0.2 0.6h-1.6c-0.3 0-0.7 0.1-0.9-0.1-0.4-0.2-0.1-0.5 0.2-0.6z"/><path class="a" d="m26.4 39.1c0.3 0 3.7-0.3 2.7 0.7-0.4 0-2.7 0-2.9-0.2-0.1-0.2 0-0.4 0.2-0.5z"/><path class="a" d="m24.5 19.8q1.1 0 2.3 0h8.1c0.3 0 2.7-0.2 1.8 0.7-0.5 0-1.1 0-1.6 0h-8.1c-0.4 0-2.5 0.1-2.7-0.2-0.2-0.2 0-0.4 0.2-0.5z"/><path class="a" d="m34.7 17.6c0.7 0 6.4 0 6.6 0 0.1 0.1 0.1 0.4 0 0.5-0.3 0.3-1.1 0.2-1.4 0.2h-8.9-4.3c-0.4 0-2.5 0.1-2.5-0.3-0.1-0.6 0.9-0.4 1.2-0.4z"/><path class="a" d="m24.5 15.4c0.7 0 1.4 0 2.1 0h4.2c0.9 0 10.2 0 10.4 0.1 0.4 0.1 0.2 0.5-0.1 0.6h-15.2c-0.4 0-1.1 0.1-1.5 0-0.4-0.1-0.2-0.5 0.1-0.7z"/><path class="a" d="m25.1 23.3c0.2 0 1.3 0 1.7 0h2.7c0.7 0 1.4-0.1 1.7 0.7 0.1 0.3 0.1 3.9 0.1 4.5-0.1 0.5-0.3 0.8-0.8 1-0.4 0-0.7 0-1.1 0h-2.1c-0.9 0-2.9 0.3-3.1-0.8-0.1-0.7-0.1-3.8 0-4.5 0.1-0.6 0.3-0.8 0.9-0.9z"/><path class="d" d="m25.1 24c0.2-0.1 5.1 0 5.2 0 0.5 0.1 0.3 1.9 0.3 2.4 0 0.5 0.2 2.3-0.2 2.5-0.3 0-0.6 0-0.9 0h-1.5c-0.7 0-3.1 0.3-3.2-0.5 0-0.7-0.2-4.2 0.3-4.4z"/><path class="e" d="m28.9 25.1c0.3 0.2 0.6 0.5 0.9 0.7q-0.2 0.3-0.5 0.6l-0.2-0.3q-1 0.9-1.9 1.8-0.2-0.3-0.5-0.5-0.4-0.5-0.8-0.9 0.2-0.3 0.5-0.6c0.3 0.4 0.6 0.6 0.8 0.9z"/><path class="a" d="m26.9 31.6h2.2c0.8 0 2.1-0.2 2.2 1 0 1 0.1 3.6-0.1 4.6-0.1 1.1-1.9 0.7-2.6 0.7h-2.3c-1.1 0-2.1 0.3-2.1-1.2v-2.7c0-2.7 0.3-2.4 2.7-2.4z"/><path class="d" d="m25.1 32.3c0.8 0 5-0.1 5.5 0.1 0.1 0.5 0 1.6 0 2.2 0 0.5 0.2 2.5-0.2 2.7h-3.4c-0.6 0-1.2 0-1.8 0-0.4-0.1-0.4-0.2-0.4-0.5 0-0.9 0-1.7 0-2.5 0-0.6-0.2-1.7 0.3-2z"/><path class="e" d="m28.9 33.6c0.2 0.1 0.6 0.6 0.8 0.7-0.2 0.2-0.4 0.5-0.6 0.4-0.3 0-1.4 1.2-1.6 1.5-0.3-0.2-0.6-0.5-0.8-0.7q-0.4-0.3-0.7-0.7 0.3-0.3 0.6-0.6 0.4 0.5 0.9 0.9 0.7-0.8 1.4-1.5z"/><path class="a" d="m35.1 23.3h3.7c0.9 0 2.5-0.3 2.6 0.9 0.1 0.7 0 1.5 0 2.2v1.5c0 0.7 0 1.6-1 1.6h-3.8c-1.9 0-2.5 0.4-2.5-1.9v-1.7c0-1-0.4-2.5 1-2.6z"/><path class="d" d="m34.7 25.2c0-0.2-0.1-1.1 0.2-1.2 0.3-0.1 5.5-0.1 5.8 0.1 0.1 0.2 0.1 0.7 0 1-1 0.3-5.4 0.4-5.9 0.2q0 0-0.1-0.1z"/><path class="f" d="m34.7 25.2q0.1 0.1 0.1 0.1c0.5 0.2 4.9 0.1 5.9-0.2 0.1 0.5 0.1 3.4 0 3.6-0.3 0.3-1 0.2-1.3 0.2h-3.3c-0.6 0-1.3 0.2-1.4-0.6 0-0.8 0-2.2 0-3.1z"/><path class="a" d="m34.9 31.6c1 0 2.1 0 3.2 0 0.9 0 3-0.3 3.3 0.7 0.1 0.4 0 4.2 0 4.7-0.1 0.5-0.3 0.8-0.8 0.9h-3.7c-3.2 0-2.8 0.2-2.8-3.2 0-1.1-0.4-2.6 0.8-3.1z"/><path class="d" d="m34.7 33.6c0-1.6 0-1.3 1.5-1.3h2.1c2.3 0 2.5-0.6 2.4 1.3z"/><path class="b" d="m34.7 33.6h6v3.7c-0.3 0-0.6 0-0.9 0h-3.6c-0.3 0-1.1 0.1-1.4-0.1-0.1-0.4-0.1-3-0.1-3.6z"/><path class="a" d="m7.6 13.9c0.6 0 1.3 0 1.9 0h8.9c0.9 0 3.5-0.4 3.6 1.2 0 1.4-0.1 2.7-0.1 4.1v18.2c0.1 1.1 0.2 2.2-1 2.8-0.9 0-1.7 0-2.6 0h-8.6c-3.4 0-3.1-0.1-3.1-3.1v-19.9c0-1.1-0.4-3 1-3.3z"/><path class="d" d="m17.1 14.6v1.4h-5.9v-1.4z"/><path class="c" d="m11 16.7h6.3c0.6 0.4 1.2 1 1.6 1.6v6.8h-1.3c0-0.6-0.5-1-0.7-0.3 0.1 0.6-0.9 0.3-1.5 0.3h-3.9c0-1.1-0.7-1.2-0.7 0h-1.3v-6.8c0.5-0.6 1-1.1 1.5-1.6z"/><path class="a" d="m14.1 18c0.4 0 0.3 0.2 0.4 0.6 0.3 0.1 0.9 0.5 0.7 0.9-0.2 0.5-1.3-1-1.7 0.3 0.2 0.5 0.5 0.5 1 0.6 1.2 0.4 1.2 1.8 0 2.4-0.1 0.4 0 0.6-0.4 0.6-0.3-0.1-0.3-0.3-0.3-0.6-0.3-0.1-1.4-0.6-0.7-1 0.2-0.1 0.6 0.3 0.9 0.4h0.1c0.3 0 0.9-0.3 0.7-0.8-0.2-0.4-0.8-0.3-1.2-0.5-1.1-0.5-1-1.9 0.2-2.3 0-0.3 0-0.5 0.3-0.6z"/><path class="d" d="m18.3 14.6q0.8 0 1.5 0c1.8 0 1.5 0.2 1.5 1.9v20.6c0 0.8 0.3 2.4-0.9 2.4-0.8 0-1.7 0-2.5 0h-8.2c-0.6 0-1.1 0-1.7 0-1-0.1-0.8-1.1-0.8-1.8v-9.9-11.6c0-0.6-0.2-1.2 0.4-1.6q1.5 0 3 0v1.6c-0.5 0.5-1.4 1.3-1.8 1.8v4.7c0 0.9 0 1.7 0 2.6 0.1 0.8 0.9 0.5 1.6 0.5h6.4c3.3 0 2.7 0.6 2.7-2.5v-5.4c-0.2-0.4-1.4-1.5-1.8-1.8v-1.5q0.3 0 0.6 0z"/><path class="a" d="m9.1 34.6h1.6c0.4 0 1.4-0.1 1.3 0.4 0 0.1 0 0.2-0.2 0.3-0.5 0-1.9 0-2.5 0-0.4 0-0.6-0.5-0.2-0.7z"/><path class="a" d="m9.1 30.1c0.7-0.1 2-0.1 2.6 0 0.4 0 0.5 0.4 0.1 0.6-0.2 0-4 0.3-2.7-0.6z"/><path class="a" d="m14.5 34.6c1.4 0 2.9 0 4.4 0 0.5 0 0.9 0.3 0.4 0.7-0.3 0-0.6 0-0.9 0h-1.8c-0.2 0-3.2 0.3-2.1-0.7z"/><path class="a" d="m14.5 30.1c0.7 0 4.8-0.1 5 0.1 0.1 0.2 0 0.4-0.2 0.5-0.4 0.1-1.2 0-1.7 0h-2c-0.3 0-0.7 0.1-1.1 0-0.4 0-0.3-0.5 0-0.6z"/><path class="a" d="m9.1 36.9h3.5c0.4 0 1.3 0 1.7 0.1 0.3 0 0.2 0.5 0 0.6-1.1 0-4.1 0.1-5.2 0-0.4-0.1-0.3-0.5 0-0.7z"/><path class="a" d="m9.3 32.3h3.1c0.6 0 1.2 0 1.7 0 0.5 0.1 0.5 0.6 0 0.7h-3.4c-0.3 0-1.7 0.2-1.8-0.3-0.1-0.3 0.2-0.4 0.4-0.4z"/><path class="a" d="m9.1 27.7h7.2c0.5 0 2.7-0.1 3 0 0.4 0.1 0.2 0.5-0.1 0.6h-9.1c-0.3 0-1.4 0.2-1.2-0.4 0.1-0.1 0.1-0.2 0.2-0.2z"/></svg>